<?xml version="1.0" standalone="no"?>
<!DOCTYPE svg PUBLIC "-//W3C//DTD SVG 20010904//EN"
 "http://www.w3.org/TR/2001/REC-SVG-20010904/DTD/svg10.dtd">
<svg version="1.0" xmlns="http://www.w3.org/2000/svg"
 width="489.000000pt" height="800.000000pt" viewBox="0 0 489.000000 800.000000"
 preserveAspectRatio="xMidYMid meet">

<g transform="translate(0.000000,800.000000) scale(0.100000,-0.100000)"
fill="#000000" stroke="none">
<path d="M525 7980 c-111 -18 -228 -45 -254 -59 -7 -5 49 -11 125 -14 196 -8
301 -40 445 -138 111 -75 229 -240 269 -376 l13 -42 -81 -86 c-172 -181 -291
-413 -333 -645 -20 -111 -17 -325 5 -445 80 -430 327 -686 775 -802 99 -26
120 -28 306 -28 189 0 310 12 357 36 14 7 17 34 20 186 4 157 7 185 27 237 27
69 86 132 149 160 41 18 43 22 38 50 -11 54 -65 152 -114 207 l-47 53 -6 -155
c-9 -209 -45 -310 -156 -429 -134 -145 -305 -216 -461 -191 -85 14 -161 50
-220 105 -46 43 -53 46 -104 46 -109 0 -208 48 -267 131 -17 22 -42 76 -56
119 -14 43 -45 104 -67 137 -73 104 -80 127 -90 328 -10 201 -8 223 28 291 14
26 32 75 41 108 8 33 30 94 48 135 17 42 40 98 50 125 10 28 35 68 55 90 21
23 47 59 58 81 25 51 60 84 71 67 9 -15 35 -272 28 -279 -24 -23 -69 80 -68
158 0 67 -13 70 -30 7 -15 -58 -4 -116 36 -182 44 -74 57 -117 50 -163 -11
-65 -11 -65 -42 -49 -70 36 -108 104 -119 212 -7 67 -8 68 -20 39 -35 -82 -5
-176 92 -287 l59 -67 -3 -67 c-4 -66 -4 -66 -30 -59 -36 8 -93 46 -131 87 -35
37 -61 110 -61 172 -1 36 -2 38 -12 21 -19 -32 -13 -125 11 -180 30 -68 83
-120 164 -161 37 -19 67 -35 67 -37 0 -1 9 -33 20 -71 l19 -69 -58 6 c-73 6
-136 34 -191 83 -57 51 -79 103 -81 184 l-1 65 -13 -40 c-43 -131 12 -256 140
-319 58 -28 166 -56 220 -56 41 0 159 -115 135 -130 -40 -26 -126 -42 -201
-38 -135 8 -225 69 -269 183 l-19 50 0 -36 c-1 -47 23 -114 54 -155 14 -18 54
-47 91 -65 95 -47 189 -51 342 -14 l113 27 99 -23 c55 -12 100 -25 100 -29 0
-4 -17 -31 -38 -60 -80 -115 -208 -177 -345 -168 -88 6 -151 34 -212 94 -52
50 -56 46 -17 -17 67 -104 151 -144 288 -137 73 4 94 10 167 46 103 51 169
109 222 195 39 63 41 65 98 77 74 16 167 60 234 111 29 21 55 39 58 39 3 0 5
-38 5 -84 0 -152 -57 -276 -178 -388 -117 -108 -255 -146 -407 -112 -12 3 -8
-2 10 -12 45 -26 159 -30 231 -9 156 45 280 145 352 283 63 121 76 183 69 333
-8 159 -1 173 58 127 63 -49 113 -116 158 -210 23 -48 44 -87 48 -88 3 0 13
23 24 51 26 73 107 190 164 238 42 36 50 39 61 26 15 -18 16 -42 6 -150 -19
-199 86 -421 251 -531 78 -52 202 -94 279 -94 61 0 148 23 161 42 3 6 2 8 -4
5 -5 -3 -37 -10 -71 -16 -79 -13 -166 1 -241 37 -82 39 -209 168 -250 254 -37
77 -59 205 -45 262 l9 36 50 -36 c67 -49 151 -88 233 -109 67 -18 68 -19 103
-78 46 -80 123 -148 226 -199 84 -42 90 -43 182 -43 79 0 105 4 146 23 60 28
91 55 116 104 27 52 24 55 -18 18 -20 -18 -62 -45 -93 -59 -46 -21 -69 -26
-141 -25 -78 0 -93 3 -155 34 -78 38 -164 118 -182 167 -12 37 -19 33 129 67
64 15 68 14 145 -11 105 -34 252 -38 332 -8 106 39 169 118 179 224 l5 56 -31
-61 c-37 -72 -103 -137 -168 -166 -70 -31 -173 -29 -247 5 l-59 27 54 58 54
57 88 12 c91 13 176 45 232 87 70 54 112 190 84 272 l-13 39 -8 -60 c-16 -125
-92 -221 -197 -251 -45 -14 -114 -14 -127 -1 -2 2 6 32 18 68 20 64 22 66 84
98 77 40 139 98 165 154 19 43 24 128 10 177 -6 19 -9 11 -14 -38 -11 -101
-66 -182 -149 -216 -60 -25 -64 -23 -72 45 l-6 61 61 66 c97 104 129 198 95
277 -13 30 -13 30 -21 -33 -9 -79 -49 -160 -94 -189 -52 -35 -59 -31 -66 40
-7 60 -5 66 27 118 19 30 39 67 46 82 16 37 15 125 -3 162 -13 29 -13 29 -14
-31 -1 -43 -8 -74 -24 -104 -37 -70 -50 -65 -42 16 9 96 25 205 31 216 9 14
34 -12 60 -64 14 -27 40 -65 58 -86 37 -41 67 -95 86 -157 7 -22 25 -62 40
-90 15 -27 30 -70 33 -95 3 -25 23 -81 43 -124 l37 -77 -7 -97 c-4 -53 -8
-142 -9 -197 -3 -120 -25 -178 -90 -240 -37 -34 -45 -49 -54 -101 -32 -175
-148 -281 -320 -292 -69 -4 -74 -7 -116 -47 -86 -82 -216 -124 -327 -106 -235
38 -407 190 -487 431 -14 43 -18 86 -18 203 l0 149 -55 -59 c-54 -58 -105
-146 -116 -201 -5 -26 0 -32 60 -71 67 -43 112 -97 136 -161 8 -22 14 -106 18
-222 l4 -187 47 -10 c182 -39 466 -40 617 -2 237 59 395 143 530 283 207 213
304 515 274 853 -16 187 -51 310 -131 465 -56 109 -119 196 -221 305 l-71 76
13 42 c38 129 155 294 264 371 133 96 257 135 455 143 73 3 127 9 120 14 -53
29 -335 79 -449 79 -86 0 -276 -27 -385 -55 -137 -35 -286 -97 -560 -233 -469
-233 -580 -273 -770 -273 -196 0 -327 46 -735 254 -358 184 -507 238 -770 283
-168 28 -262 29 -415 4z m3288 -186 c-78 -59 -195 -177 -353 -359 -188 -215
-351 -385 -369 -385 -17 0 -17 0 134 165 61 66 161 179 222 251 130 153 248
266 335 323 78 51 96 54 31 5z m-2575 -119 c47 -44 165 -172 262 -285 232
-269 217 -256 293 -252 50 2 58 0 43 -9 -10 -6 -33 -9 -52 -6 -39 7 -43 -2
-13 -29 12 -10 30 -32 42 -48 19 -27 19 -28 1 -18 -29 15 -227 222 -401 418
-84 95 -196 213 -250 264 -84 79 -92 89 -54 69 24 -13 82 -60 129 -104z m2301
-272 c-78 -104 -168 -220 -200 -258 -64 -78 -202 -201 -207 -186 -2 6 29 40
68 77 70 66 146 158 365 438 60 77 111 134 113 128 2 -6 -61 -96 -139 -199z
m-2293 159 c17 -27 17 -27 -15 2 -35 33 -37 38 -17 30 8 -3 22 -18 32 -32z
m447 -22 c-44 -40 -92 -47 -151 -24 l-47 19 90 5 c50 3 99 11 110 17 33 20 32
14 -2 -17z m1520 14 c30 -10 70 -14 111 -12 73 3 75 -13 5 -34 -47 -14 -99 -1
-144 36 -36 30 -33 31 28 10z m-1881 -233 c203 -297 330 -419 556 -535 62 -31
112 -59 112 -61 0 -7 -73 17 -151 50 -152 66 -293 171 -384 287 -63 80 -305
469 -305 489 1 19 17 -3 172 -230z m96 15 c93 -122 150 -188 291 -338 19 -21
30 -38 24 -38 -6 0 -59 47 -117 104 -96 96 -191 214 -321 401 -81 117 -1 33
123 -129z m2211 62 c-125 -212 -199 -320 -272 -395 -105 -109 -244 -198 -393
-254 -63 -24 -83 -19 -32 7 84 43 239 142 301 191 91 73 175 174 314 377 124
182 144 209 150 202 3 -2 -28 -60 -68 -128z m-1730 66 c-52 -56 -106 -67 -174
-35 l-40 19 72 0 c50 0 85 7 115 20 56 26 56 26 27 -4z m1206 -17 l80 0 -40
-18 c-69 -32 -133 -21 -180 31 l-20 22 40 -17 c27 -12 67 -18 120 -18z m-725
-84 c0 -1 -13 -9 -30 -18 -38 -19 -77 -18 -117 3 l-32 17 89 0 c50 0 90 -1 90
-2z m229 -3 l36 -1 -25 -14 c-33 -19 -74 -19 -110 0 -42 22 -37 29 16 21 26
-3 63 -6 83 -6z m324 -28 c-53 -25 -98 -23 -145 6 -26 17 -23 17 84 17 l110 0
-49 -23z m-857 3 c-30 -23 -84 -29 -127 -15 -67 22 -54 30 48 30 88 -1 96 -2
79 -15z m-342 -30 c-24 -18 -92 -19 -124 0 -23 13 -19 14 59 15 77 0 83 -1 65
-15z m1516 0 c-33 -19 -91 -19 -116 0 -17 13 -11 14 61 14 74 0 78 -1 55 -14z
m-1048 -60 c61 0 65 -6 18 -25 -36 -15 -86 -7 -120 21 l-25 20 35 -8 c19 -4
60 -8 92 -8z m284 0 c-25 -19 -73 -19 -106 0 -23 13 -20 14 50 14 68 0 73 -1
56 -14z m276 -11 c-32 -22 -87 -29 -123 -13 -28 11 -30 14 -13 20 10 4 50 8
89 8 66 1 68 0 47 -15z m303 -10 l50 5 -35 -19 c-19 -11 -45 -19 -58 -20 -27
0 -73 22 -91 44 -11 13 -6 13 36 -1 29 -9 67 -12 98 -9z m-1166 -15 c-43 -23
-74 -23 -124 -1 l-40 18 99 1 99 0 -34 -18z m198 -74 c-16 -14 -41 -25 -57
-25 -31 0 -86 18 -78 25 3 3 38 9 79 14 41 5 76 9 79 9 3 1 -8 -10 -23 -23z
m748 7 c68 -5 69 -6 40 -18 -41 -18 -71 -17 -111 2 -34 16 -49 42 -16 29 9 -4
49 -10 87 -13z m-499 -17 c-11 -8 -36 -15 -56 -15 -20 0 -45 7 -56 15 -17 13
-12 14 56 14 68 0 73 -1 56 -14z m280 0 c-25 -19 -73 -19 -106 0 -23 13 -20
14 50 14 68 0 73 -1 56 -14z m477 3 c-15 -7 -30 -7 -50 0 -26 10 -24 10 22 11
42 0 46 -2 28 -11z m-627 -73 c-21 -16 -44 -19 -72 -8 -16 6 -16 7 2 14 10 4
35 8 54 8 33 0 34 -1 16 -14z m-506 -25 c-8 -5 -26 -10 -40 -10 -14 0 -32 5
-40 10 -11 7 1 10 40 10 39 0 51 -3 40 -10z m760 0 l25 -7 -28 -12 c-22 -8
-35 -8 -62 4 -19 7 -35 16 -35 19 0 8 70 5 100 -4z m240 0 c-8 -5 -24 -10 -35
-10 -11 0 -27 5 -35 10 -11 7 -1 10 35 10 36 0 46 -3 35 -10z m-750 -10 c-8
-5 -33 -10 -55 -10 -22 0 -47 5 -55 10 -10 7 6 10 55 10 49 0 65 -3 55 -10z
m-94 -85 c-21 -16 -63 -19 -93 -7 -13 5 -6 9 27 13 25 3 54 7 65 7 20 1 20 1
1 -13z m183 4 c-16 -6 -35 -6 -50 0 -20 8 -16 10 26 10 43 -1 46 -2 24 -10z
m298 -1 c-20 -7 -35 -7 -50 0 -18 9 -14 11 28 11 46 -1 48 -1 22 -11z m200 2
c14 0 21 -4 18 -10 -9 -15 -56 -11 -85 6 l-25 15 34 -5 c18 -3 44 -6 58 -6z
m-1357 -235 c18 6 19 3 14 -27 -6 -27 -4 -31 7 -20 7 6 28 12 46 12 64 0 83
-80 27 -117 -24 -15 -29 -15 -53 -2 -14 8 -31 30 -37 49 l-12 35 -11 -40 c-24
-87 -7 -158 52 -223 23 -25 60 -53 82 -63 78 -36 199 -16 262 43 21 20 23 20
48 4 25 -16 28 -16 53 0 l27 17 -18 -26 c-22 -34 -22 -40 2 -27 17 9 20 5 26
-28 7 -43 -5 -83 -41 -129 -15 -20 -20 -33 -12 -35 22 -8 -3 -28 -55 -44 -81
-25 -249 -30 -327 -10 -165 43 -288 176 -326 355 -16 78 -19 155 -4 146 6 -3
10 -16 11 -28 1 -12 7 12 14 54 17 103 37 130 109 153 20 7 20 7 1 -74 -4 -14
9 1 27 32 l33 57 18 -35 c14 -27 22 -34 37 -29z m2127 33 c29 -14 49 -58 64
-143 10 -56 14 -65 20 -45 12 42 11 -57 -2 -126 -43 -237 -278 -402 -519 -365
-39 6 -85 18 -103 25 l-32 14 30 2 c28 2 26 4 -25 27 -77 35 -100 58 -100 104
0 34 2 37 23 31 21 -5 21 -4 6 14 -31 36 -33 47 -10 39 15 -4 20 -3 16 7 -3 8
11 20 36 32 40 18 41 18 62 -2 111 -104 307 -68 378 70 22 43 26 141 7 185
l-12 28 -4 -30 c-8 -61 -62 -85 -102 -45 -39 39 -14 110 40 110 16 0 32 -4 35
-10 13 -22 26 -9 20 19 -6 26 -4 29 14 24 17 -4 21 -1 21 21 0 33 10 33 51 -1
l32 -28 -6 33 c-6 31 -5 33 16 27 12 -3 32 -11 44 -17z"/>
<path d="M935 7206 c-16 -13 -27 -27 -24 -30 3 -3 18 8 34 24 35 36 31 38 -10
6z"/>
<path d="M848 7101 c-51 -60 -134 -205 -169 -295 -65 -168 -99 -353 -99 -540
l0 -99 -51 -80 c-93 -145 -175 -354 -194 -493 l-6 -49 38 66 c51 87 80 127
104 140 19 10 19 9 4 -28 -9 -21 -41 -99 -72 -173 -91 -221 -120 -268 -208
-333 l-40 -29 39 7 c86 15 167 72 255 180 44 54 35 23 -35 -120 -115 -237
-215 -364 -334 -423 -71 -36 -52 -43 34 -13 63 22 131 66 199 129 l47 45 -63
-125 c-179 -350 -272 -729 -282 -1153 l-4 -170 14 125 c71 619 230 1051 520
1410 37 46 77 92 89 101 20 17 21 17 33 -19 24 -75 18 -99 -46 -181 -89 -116
-148 -213 -222 -366 -145 -300 -227 -622 -259 -1019 -10 -126 -14 -464 -6
-455 3 2 12 93 20 202 45 555 190 1020 431 1382 68 103 137 185 155 185 4 0
21 -30 38 -67 l30 -68 -34 -45 c-124 -165 -213 -325 -277 -500 -85 -228 -139
-450 -172 -700 -23 -171 -31 -553 -15 -744 20 -250 28 -242 29 29 1 289 12
431 46 640 50 299 146 612 256 834 66 134 162 281 217 334 l28 27 48 -61 47
-61 -85 -141 c-141 -235 -225 -437 -289 -692 -111 -442 -127 -1005 -41 -1455
31 -164 88 -400 97 -400 5 0 7 12 3 28 -23 106 -59 313 -73 420 -24 180 -24
674 0 857 50 374 151 719 279 955 50 91 136 221 182 275 l35 40 47 -47 47 -46
-61 -93 c-235 -352 -366 -872 -365 -1449 0 -420 58 -795 182 -1177 43 -132
130 -347 138 -339 3 2 -20 80 -50 173 -88 267 -132 462 -169 743 -18 135 -22
218 -22 455 -1 180 4 330 12 395 45 369 120 652 236 896 58 121 141 257 179
292 l24 23 51 -41 51 -40 -36 -62 c-66 -113 -161 -322 -201 -443 -217 -652
-179 -1483 103 -2260 55 -152 147 -363 152 -348 2 6 -17 66 -42 133 -185 496
-278 1100 -247 1597 20 319 66 576 148 823 47 141 151 365 204 438 l31 43 39
-31 40 -31 -31 -52 c-66 -113 -161 -318 -198 -432 -223 -683 -175 -1586 126
-2355 60 -153 188 -403 275 -536 86 -133 191 -270 196 -256 2 6 -32 79 -74
164 -190 379 -288 747 -324 1219 -18 229 -8 644 19 824 70 457 202 807 408
1081 l22 29 35 -34 c20 -19 36 -38 36 -42 0 -4 -30 -54 -66 -111 -242 -381
-367 -885 -366 -1483 0 -407 67 -797 197 -1152 48 -130 167 -375 239 -491 93
-149 276 -385 289 -372 3 3 -23 55 -59 115 -237 400 -371 869 -393 1374 -21
478 47 918 197 1288 57 139 111 235 198 349 l64 84 -37 76 c-55 112 -176 265
-310 394 -65 63 -229 201 -363 305 -321 249 -460 366 -544 455 -231 246 -373
553 -402 869 -4 39 -11 74 -16 77 -5 4 -17 -4 -26 -17 -9 -13 -36 -44 -60 -69
l-44 -45 29 55 c28 55 110 150 130 150 6 0 14 -33 17 -72 19 -195 75 -396 151
-548 137 -274 325 -468 825 -856 198 -153 398 -323 469 -398 50 -52 59 -45 14
11 -61 74 -299 291 -563 514 -135 113 -292 255 -350 316 -102 106 -209 247
-198 258 3 3 36 -31 74 -77 135 -164 185 -208 609 -525 176 -132 357 -275 403
-318 89 -84 188 -208 228 -286 13 -27 28 -49 32 -49 4 0 25 30 47 68 74 130
124 183 345 373 36 31 191 150 345 264 230 171 304 233 415 344 75 75 158 169
185 208 52 78 69 90 37 26 -81 -155 -203 -281 -637 -653 -310 -266 -438 -385
-504 -468 -63 -80 -11 -49 90 54 98 99 156 147 584 485 211 166 420 371 517
509 84 119 167 285 208 415 17 56 40 168 52 255 12 85 23 157 25 159 12 16
153 -162 153 -193 0 -6 -27 16 -60 49 -33 32 -61 57 -63 54 -2 -2 -10 -47 -17
-99 -42 -319 -148 -553 -362 -801 -74 -87 -183 -183 -413 -363 -552 -433 -739
-619 -851 -848 l-28 -57 32 -38 c384 -461 540 -1372 372 -2188 -65 -316 -185
-628 -339 -883 -34 -57 -61 -108 -59 -113 9 -26 243 288 339 456 432 756 519
1819 217 2665 -44 124 -128 292 -197 397 -34 50 -61 94 -61 97 0 3 17 21 38
40 l37 35 18 -22 c50 -60 134 -198 182 -299 133 -280 208 -568 246 -943 16
-156 16 -567 0 -720 -45 -439 -150 -819 -317 -1153 -50 -100 -88 -184 -85
-187 9 -5 168 215 239 331 116 187 261 512 331 739 194 634 222 1356 76 1930
-46 180 -85 283 -182 473 -45 90 -83 167 -83 171 0 3 16 17 36 31 l36 24 24
-29 c37 -46 119 -211 168 -335 83 -213 137 -438 173 -715 27 -213 24 -672 -5
-897 -47 -356 -116 -636 -234 -947 -37 -98 -43 -127 -21 -99 21 27 126 286
178 441 133 396 193 734 202 1149 12 545 -64 919 -274 1337 -51 102 -91 185
-90 186 1 0 24 18 50 39 56 45 57 45 121 -53 317 -478 448 -1242 346 -2011
-34 -251 -82 -463 -162 -708 -22 -68 -37 -126 -34 -129 10 -10 63 118 117 278
111 332 173 671 188 1029 27 639 -104 1217 -365 1618 l-55 84 36 44 c20 24 43
44 50 44 32 0 156 -182 240 -349 184 -370 278 -816 277 -1326 -1 -250 -17
-439 -58 -678 -14 -82 -24 -151 -21 -153 6 -7 63 213 86 337 65 341 71 830 15
1179 -63 397 -193 750 -376 1023 l-59 88 47 59 c26 33 50 60 54 60 12 0 70
-68 122 -140 153 -216 299 -607 367 -985 44 -245 56 -390 56 -672 0 -149 3
-264 7 -254 33 89 42 648 14 871 -66 541 -205 937 -434 1238 l-55 73 33 70
c19 38 37 69 41 69 12 0 121 -140 177 -229 70 -112 169 -317 221 -458 87 -238
145 -517 181 -858 l19 -190 -4 250 c-5 321 -31 511 -110 800 -76 278 -217 561
-389 779 -25 33 -46 67 -46 75 1 31 25 111 35 113 14 3 132 -145 220 -277 210
-314 329 -662 385 -1130 36 -293 39 -306 34 -120 -15 486 -114 885 -307 1243
-47 85 -48 101 -6 56 36 -38 137 -113 191 -140 27 -14 64 -24 85 -23 l38 0
-37 14 c-127 47 -240 179 -363 425 -90 179 -89 187 13 82 91 -95 149 -131 211
-132 l34 0 -53 38 c-29 20 -70 62 -90 92 -36 53 -204 429 -196 437 8 8 78 -73
113 -130 20 -31 37 -56 39 -54 6 6 -28 154 -52 226 -33 99 -93 221 -147 302
l-44 66 -6 169 c-4 145 -9 185 -35 284 -55 214 -133 376 -227 476 -51 54 -50
49 11 -46 92 -144 160 -318 190 -490 24 -141 15 -370 -20 -505 -102 -392 -449
-689 -886 -760 -162 -26 -436 -17 -611 20 -26 6 -27 4 -58 -117 -54 -207 -110
-373 -163 -479 -48 -94 -52 -100 -66 -83 -53 70 -170 390 -213 582 -12 56 -26
102 -30 102 -4 0 -60 -9 -126 -20 -229 -40 -487 -24 -685 41 -387 126 -642
400 -726 779 -23 106 -23 366 1 477 34 157 111 346 187 458 32 47 53 85 46 85
-2 0 -20 -18 -38 -39z m3227 -1571 c7 -33 -15 -84 -44 -100 -22 -11 -80 -13
-105 -4 -23 9 -20 24 4 24 11 0 19 4 18 9 -2 4 20 33 47 63 53 58 69 59 80 8z
m-3230 -10 c28 -56 48 -70 99 -70 46 0 46 -15 2 -30 -41 -13 -94 5 -120 41
-14 21 -23 109 -11 109 2 0 16 -22 30 -50z m78 -49 c-10 -2 -27 9 -40 23 -36
43 -27 50 17 14 30 -25 35 -34 23 -37z m133 -106 c8 -20 24 -19 24 1 0 12 11
6 39 -19 26 -23 61 -42 100 -53 34 -9 61 -20 61 -25 0 -5 -18 -21 -40 -35 -34
-22 -48 -26 -90 -22 -34 3 -59 13 -74 27 -22 21 -46 87 -46 125 0 20 19 21 26
1z m2794 -21 c0 -126 -138 -185 -224 -95 l-27 29 53 12 c62 15 104 34 136 63
21 20 22 20 23 1 0 -17 2 -17 11 4 16 33 28 27 28 -14z m-2984 -31 c13 -17 14
-17 8 0 -3 9 -2 17 2 16 14 -1 77 -79 77 -94 0 -7 12 -17 26 -20 24 -7 25 -8
6 -15 -40 -17 -83 -11 -114 16 -26 22 -31 33 -31 70 0 48 5 53 26 27z m3177
-16 c20 -61 -41 -114 -116 -101 l-42 7 30 13 c17 7 23 13 15 14 -9 0 5 20 35
49 28 26 54 47 59 46 6 -1 14 -13 19 -28z m-2540 -118 c23 -6 63 -8 89 -5 55
8 60 3 18 -19 -63 -33 -149 -13 -189 44 -29 41 -26 47 9 17 17 -14 50 -31 73
-37z m1972 31 c-35 -67 -133 -90 -205 -49 l-35 20 51 -6 c62 -8 118 6 164 40
19 14 35 25 37 25 2 0 -4 -14 -12 -30z m-2015 -81 c51 -28 108 -24 174 10 l56
30 -15 -28 c-21 -42 -80 -89 -121 -97 -78 -15 -159 36 -183 115 -20 67 -13 76
22 30 17 -23 48 -50 67 -60z m696 37 c-29 -95 -91 -154 -171 -163 -25 -3 -58
0 -75 7 -35 14 -105 90 -113 121 -5 20 -5 20 21 3 96 -64 173 -71 243 -24 24
16 58 49 74 74 35 52 41 48 21 -18z m642 -38 c65 -59 166 -65 243 -13 47 31
56 28 36 -12 -44 -84 -160 -128 -235 -89 -58 31 -121 127 -122 186 0 25 0 25
18 -5 11 -16 37 -47 60 -67z m707 16 c-55 -145 -231 -132 -314 24 -10 19 -4
17 39 -14 92 -66 204 -53 261 31 30 44 38 21 14 -41z m-1410 32 c-61 -81 -184
-89 -248 -18 -19 21 -19 21 29 6 74 -22 124 -18 185 15 30 16 55 30 57 30 2 1
-9 -14 -23 -33z m830 -20 c28 0 68 3 90 7 l40 8 -28 -25 c-66 -60 -162 -56
-224 11 -47 49 -41 57 20 26 36 -18 67 -27 102 -27z m850 -63 c-28 -67 -56
-86 -130 -91 -54 -4 -64 -7 -54 -18 17 -21 81 -17 130 9 33 18 51 37 71 76
l28 53 0 -46 c0 -157 -153 -219 -267 -109 -36 35 -37 37 -15 41 12 2 22 8 22
13 0 5 23 9 50 9 61 0 120 27 150 70 29 40 34 38 15 -7z m-2628 -90 c29 -22
46 -28 87 -27 45 0 104 19 94 29 -2 2 -21 0 -43 -5 -75 -17 -147 22 -174 93
-11 28 -10 28 35 -12 49 -43 88 -56 154 -49 28 2 40 0 40 -9 0 -7 4 -13 10
-13 19 0 -13 -50 -44 -69 -96 -59 -207 -19 -235 84 -6 22 -11 54 -10 70 0 29
1 28 24 -17 14 -26 41 -59 62 -75z m2144 -62 c-6 -10 -26 -32 -46 -50 -30 -26
-44 -31 -88 -31 -35 0 -63 7 -86 21 -18 11 -32 22 -30 24 2 2 23 0 47 -5 56
-10 128 4 172 35 43 29 43 29 31 6z m-1536 -42 c30 0 65 2 77 6 22 6 22 6 -2
-14 -71 -56 -190 -36 -230 39 -9 17 -4 16 45 -6 37 -17 72 -25 110 -25z m481
-23 c-18 -44 -68 -76 -118 -76 -31 0 -46 8 -79 41 -46 46 -46 58 0 35 16 -9
49 -16 73 -15 l43 1 -44 9 c-25 5 -52 16 -60 24 -14 14 -12 15 17 9 37 -7 157
21 170 40 14 22 13 -32 -2 -68z m-579 -35 c12 -6 46 -11 75 -11 44 0 65 7 111
34 31 19 57 32 57 30 0 -17 -35 -66 -69 -97 -106 -96 -249 -37 -285 118 -7 30
-7 30 41 -16 26 -26 58 -52 70 -58z m1053 78 c40 -15 67 -19 100 -15 42 6 44
5 27 -11 -19 -19 -85 -24 -127 -9 -22 8 -23 7 -12 -7 26 -31 83 -31 156 -1 19
7 19 7 1 -23 -35 -59 -112 -71 -165 -26 -30 25 -38 38 -54 91 -9 28 2 28 74 1z
m619 -36 c-18 -57 -48 -93 -93 -114 -90 -41 -178 -7 -237 91 -33 55 -30 62 14
27 60 -49 84 -59 136 -60 59 -1 114 26 154 74 36 43 44 37 26 -18z m-2010
-160 c40 -27 130 -31 171 -8 44 25 45 16 5 -25 -59 -61 -120 -70 -194 -30 -29
15 -61 84 -61 130 l0 35 23 -40 c12 -22 38 -50 56 -62z m65 37 c21 -7 57 -10
80 -7 37 5 39 4 22 -9 -26 -18 -79 -28 -113 -19 -27 6 -93 68 -93 86 0 6 15
-1 33 -14 17 -14 49 -30 71 -37z m2256 -9 c-23 -87 -101 -135 -177 -110 -35
11 -113 73 -113 90 0 4 19 -1 43 -11 55 -26 130 -26 171 -1 17 11 42 38 56 59
28 45 37 34 20 -27z m-40 48 c0 -6 -15 -26 -34 -45 -38 -38 -76 -44 -137 -22
l-34 13 62 6 c46 4 71 13 95 32 36 29 48 33 48 16z m-1528 -138 c-55 -50 -99
-59 -156 -31 -47 22 -100 71 -61 55 103 -41 147 -42 215 -5 50 27 50 24 2 -19z
m62 -3 c-35 -114 -146 -170 -232 -118 -30 18 -92 101 -92 123 0 5 15 -4 33
-19 67 -57 139 -69 207 -34 21 11 47 31 57 45 23 31 37 32 27 3z m741 -64 c54
-10 101 1 147 35 23 17 43 29 45 27 3 -2 -5 -22 -16 -45 -59 -115 -203 -122
-272 -12 -16 25 -29 54 -29 64 0 16 8 12 44 -21 27 -25 58 -43 81 -48z m12 63
c51 -9 68 -8 105 6 l43 16 -35 -29 c-48 -41 -89 -47 -144 -21 -47 23 -90 62
-51 47 11 -4 48 -13 82 -19z m-1345 -193 c48 -42 96 -50 150 -26 l43 19 -66
-5 c-63 -4 -67 -3 -102 28 -50 43 -47 53 9 29 34 -16 62 -20 110 -17 46 2 64
0 64 -9 0 -16 6 -16 31 -2 19 10 20 9 5 -18 -16 -32 -60 -75 -93 -92 -12 -6
-42 -11 -66 -11 -79 0 -139 59 -152 150 l-7 45 19 -30 c11 -17 36 -44 55 -61z
m1864 21 c-13 -65 -83 -125 -147 -125 -45 0 -115 36 -144 74 -39 51 -30 59 28
27 28 -16 66 -32 84 -36 48 -10 115 24 149 75 30 45 40 40 30 -15z m-59 20
c-10 -24 -69 -55 -107 -55 -19 1 -51 9 -70 20 l-35 19 65 1 c40 0 80 7 105 19
44 20 50 19 42 -4z m-1124 -65 c26 0 64 7 85 15 l37 16 -29 -30 c-32 -33 -80
-47 -122 -37 -14 4 -44 25 -67 47 l-42 39 45 -25 c30 -17 61 -25 93 -25z m152
-16 c-20 -49 -51 -83 -92 -100 -83 -36 -160 -1 -198 89 l-15 37 41 -30 c62
-44 112 -55 164 -36 23 9 56 32 75 51 18 19 35 33 37 31 2 -2 -3 -21 -12 -42z
m288 16 c26 0 64 7 85 15 l37 15 -32 -30 c-57 -52 -128 -52 -186 0 l-32 29 40
-14 c22 -8 62 -14 88 -15z m-57 -56 c57 -24 93 -15 177 41 l29 18 -16 -38
c-21 -50 -30 -60 -70 -79 -89 -42 -197 11 -222 109 l-7 30 38 -34 c21 -18 53
-40 71 -47z m-734 -199 c73 -29 130 -14 201 54 l39 36 -16 -38 c-36 -87 -87
-127 -164 -127 -85 0 -122 31 -158 132 l-14 43 37 -42 c21 -24 55 -50 75 -58z
m1228 27 c-27 -62 -53 -87 -107 -101 -79 -21 -139 10 -192 99 -30 51 -26 56
16 20 94 -83 191 -79 266 11 39 47 45 36 17 -29z m-1183 22 c21 -3 58 -1 82 6
55 15 61 8 18 -19 -22 -13 -51 -21 -81 -21 -39 0 -52 5 -84 36 l-37 35 31 -15
c18 -9 49 -18 71 -22z m1138 13 c-8 -13 -27 -29 -41 -35 -40 -19 -115 -15
-151 8 -35 21 -46 48 -15 35 70 -29 130 -29 182 0 36 20 43 18 25 -8z m-587
-22 c34 1 62 -1 62 -3 0 -7 -71 -32 -94 -32 -14 0 -38 12 -53 26 l-28 25 25
-8 c14 -4 53 -8 88 -8z m109 -26 c-23 -54 -60 -81 -116 -87 -39 -3 -57 0 -83
16 -33 21 -89 102 -69 102 5 0 13 -5 17 -11 12 -19 88 -49 127 -49 43 0 83 18
111 49 26 28 30 21 13 -20z m-199 -180 c-17 -50 -87 -116 -130 -124 -56 -11
-119 23 -149 80 -13 24 -20 47 -16 51 3 4 24 -9 45 -28 52 -47 100 -56 158
-28 24 12 53 35 65 51 27 38 41 37 27 -2z m242 -59 c54 -14 99 0 153 49 37 34
39 34 33 11 -34 -116 -153 -164 -235 -95 -23 20 -71 100 -71 120 0 3 18 -13
39 -34 24 -24 57 -44 81 -51z m-390 65 c30 0 69 4 85 9 l30 9 -24 -26 c-13
-14 -37 -29 -53 -32 -40 -9 -114 3 -133 21 -23 24 -18 35 13 27 15 -5 52 -8
82 -8z m442 0 c80 0 88 -10 28 -35 -39 -16 -93 -5 -127 26 l-28 25 25 -8 c14
-4 59 -8 102 -8z m-1067 -196 c10 -44 82 -115 130 -128 22 -6 69 -11 104 -11
64 0 64 0 46 -20 -31 -35 -121 -72 -173 -73 -68 -1 -112 27 -136 86 -18 42
-18 53 -7 117 13 73 25 82 36 29z m1712 -49 c7 -71 -9 -122 -48 -155 -58 -48
-201 -25 -263 44 l-19 21 69 0 c83 0 136 22 181 73 17 19 36 52 43 73 11 31
14 34 22 20 6 -10 12 -44 15 -76z m-740 20 c34 0 -20 -91 -69 -116 -21 -11
-46 -15 -77 -11 -37 4 -52 13 -83 46 -55 58 -50 78 9 41 68 -44 149 -38 192
14 17 21 13 20 -34 -4 -22 -11 -50 -20 -64 -20 -22 0 -117 48 -109 55 2 2 30
-4 63 -12 57 -15 62 -15 105 4 25 11 47 16 48 11 2 -4 10 -8 19 -8z m888 -325
c0 -106 -48 -165 -137 -165 -23 0 -61 9 -83 19 -41 18 -105 67 -105 80 0 4 30
5 68 3 37 -2 86 1 109 7 50 14 100 62 115 114 10 33 13 36 22 20 6 -10 10 -45
11 -78z m-1995 32 c36 -74 86 -99 193 -95 42 2 77 0 77 -3 0 -11 -67 -67 -98
-82 -107 -55 -205 -5 -219 111 -6 52 3 122 15 122 4 -1 18 -24 32 -53z m636
-195 c27 -37 98 -71 170 -80 l59 -7 -45 -23 c-143 -69 -276 -35 -295 78 -7 43
-4 58 27 139 l21 54 22 -67 c12 -37 31 -79 41 -94z m755 111 c83 -171 -23
-300 -201 -243 -36 11 -73 26 -83 34 -15 12 -11 14 39 20 69 8 121 34 162 80
33 37 57 106 49 137 -10 36 11 19 34 -28z m-1427 -308 c47 -20 82 -19 151 5
32 11 60 19 62 17 1 -2 -11 -22 -28 -45 -42 -58 -103 -92 -163 -92 -41 0 -53
5 -81 33 -35 35 -55 89 -55 147 l0 35 39 -43 c21 -23 55 -49 75 -57z m2107
-43 c-11 -21 -31 -46 -45 -55 -36 -24 -103 -21 -150 6 -39 22 -104 92 -95 102
3 2 21 0 40 -5 18 -6 61 -10 94 -10 68 0 110 20 147 70 l23 32 3 -50 c2 -36
-3 -63 -17 -90z m-1613 -5 c46 -49 79 -61 165 -60 l78 1 -22 -24 c-35 -38
-117 -74 -167 -74 -36 0 -50 6 -77 33 -51 51 -63 116 -38 202 5 17 8 15 20
-15 8 -19 27 -48 41 -63z m1096 62 c23 -118 -33 -219 -122 -219 -45 0 -109 26
-155 62 l-41 33 96 5 c115 6 140 20 178 98 14 28 28 51 31 52 4 0 9 -14 13
-31z m-1659 -339 c44 -15 93 -6 157 26 59 30 63 16 15 -48 -91 -119 -186 -117
-243 6 -32 69 -31 83 6 53 16 -14 46 -31 65 -37z m2224 -26 c-23 -48 -68 -84
-107 -84 -42 0 -102 39 -133 87 -36 58 -36 67 -1 49 85 -44 166 -41 228 9 28
22 29 23 32 4 2 -11 -6 -40 -19 -65z m-469 -25 c-17 -60 -68 -109 -114 -109
-46 0 -106 30 -140 70 -43 52 -36 58 44 39 73 -17 117 -3 169 51 l46 47 3 -28
c2 -15 -2 -47 -8 -70z m-1244 1 c32 -10 57 -10 105 -1 34 6 65 9 67 6 11 -11
-51 -75 -91 -94 -51 -25 -87 -27 -126 -6 -37 19 -71 89 -71 145 l0 43 38 -40
c22 -25 53 -46 78 -53z m-381 -266 c-61 -103 -159 -111 -213 -16 -27 48 -29
67 -4 57 72 -31 94 -35 136 -24 23 6 56 21 72 34 40 32 44 9 9 -51z m1981 16
c28 -7 52 -4 91 9 57 19 60 17 39 -32 -29 -69 -95 -94 -153 -58 -33 21 -76 79
-88 119 l-7 23 40 -26 c23 -15 58 -31 78 -35z m-1667 -53 c25 -5 57 0 119 18
27 9 28 -1 3 -39 -66 -99 -192 -83 -220 28 -17 68 -14 70 29 33 23 -19 53 -37
69 -40z m1361 -1 c-12 -31 -31 -63 -43 -71 -32 -22 -89 -19 -128 8 -31 21 -84
86 -76 94 2 2 21 -4 43 -13 72 -30 165 -16 204 31 22 26 22 10 0 -49z m-1700
-267 c-36 -87 -133 -91 -176 -7 -19 36 -15 42 20 28 42 -15 98 -12 131 9 35
21 42 12 25 -30z m2012 10 c29 -7 46 -6 74 6 20 8 39 13 41 11 9 -9 -27 -75
-45 -85 -52 -28 -108 -6 -136 53 -23 48 -21 60 7 41 12 -8 39 -20 59 -26z
m-1690 -29 c16 0 44 7 63 14 31 13 35 13 35 -1 0 -28 -75 -93 -107 -93 -46 0
-93 55 -93 110 0 18 3 18 36 -5 20 -14 50 -25 66 -25z m1398 -5 c-13 -39 -52
-75 -82 -75 -33 0 -76 29 -103 67 -33 49 -32 55 8 35 46 -24 119 -22 154 4 33
25 39 17 23 -31z m-1708 -238 c-33 -74 -91 -89 -143 -38 -42 43 -38 52 24 46
44 -5 58 -2 92 19 22 13 41 23 43 21 2 -2 -5 -24 -16 -48z m1943 23 c43 -22
74 -25 123 -11 37 11 37 10 17 -29 -28 -54 -95 -68 -132 -27 -19 20 -57 87
-50 87 1 0 20 -9 42 -20z m-1650 -50 c11 0 38 9 59 19 30 16 37 17 32 5 -3 -9
-6 -19 -6 -24 0 -5 -14 -22 -31 -39 -47 -47 -104 -39 -134 19 -26 50 -20 61
22 39 21 -10 47 -19 58 -19z m1276 20 c56 -25 86 -25 127 0 35 22 39 16 18
-35 -34 -81 -133 -67 -182 26 -17 34 -18 34 37 9z m425 -254 c24 0 44 -3 44
-8 0 -17 -49 -58 -69 -58 -30 0 -70 41 -78 79 l-6 34 32 -24 c24 -17 45 -24
77 -23z m-1980 -30 c-18 -28 -59 -40 -86 -26 -10 5 -28 24 -40 40 l-22 31 29
-8 c40 -11 80 -6 106 12 21 15 22 14 25 -5 2 -12 -3 -32 -12 -44z m320 18 c48
16 52 11 29 -33 -26 -51 -81 -56 -119 -10 -39 46 -35 62 10 43 32 -13 41 -13
80 0z m1270 -5 c20 -6 42 -6 59 1 34 13 35 13 35 -4 0 -30 -41 -66 -74 -66
-36 0 -59 19 -75 64 -10 25 -9 28 6 21 10 -4 32 -11 49 -16z m-1532 -201 c-17
-59 -75 -77 -114 -35 l-21 22 50 5 c28 3 56 11 63 18 19 19 30 14 22 -10z
m1852 -9 c46 -12 51 -18 32 -37 -21 -21 -75 -15 -92 10 -21 30 -21 52 0 44 9
-4 36 -11 60 -17z m-1516 -33 c0 -27 -50 -76 -78 -76 -24 0 -72 34 -72 52 0 4
22 8 48 8 27 0 57 6 68 15 24 18 34 19 34 1z m1218 -21 c36 7 39 0 16 -33 -30
-44 -106 -19 -120 40 l-6 27 39 -20 c26 -14 48 -18 71 -14z m-1535 -167 c-17
-17 -23 -17 -47 -7 l-27 13 43 22 c37 19 44 20 46 7 2 -9 -5 -24 -15 -35z
m1807 11 c0 -5 -12 -15 -26 -21 -23 -11 -29 -10 -45 11 -33 41 -25 52 26 34
25 -8 45 -19 45 -24z m-1470 -44 c0 -54 -86 -90 -109 -46 -9 16 -6 20 24 25
18 4 44 15 57 26 29 24 28 25 28 -5z m1160 -15 l45 -1 -32 -29 c-22 -19 -38
-27 -53 -23 -24 6 -50 40 -50 66 0 17 2 17 22 3 12 -9 43 -16 68 -16z m238
-112 c-21 -13 -45 -9 -52 8 -12 30 -6 34 29 17 24 -12 31 -19 23 -25z m-1384
-105 c-22 -16 -66 -14 -71 4 -2 6 15 18 39 25 38 13 43 13 47 0 2 -9 -5 -22
-15 -29z m1078 26 c30 -10 36 -15 27 -26 -17 -20 -56 -16 -73 9 -19 27 -21 42
-3 34 6 -2 29 -10 49 -17z m-1024 -164 c-11 -24 -45 -34 -61 -18 -5 5 38 31
70 42 2 1 -3 -10 -9 -24z m992 -16 c0 -19 -36 -19 -52 1 -27 34 -22 41 17 23
19 -9 35 -20 35 -24z"/>
<path d="M1089 5311 c19 -34 53 -51 101 -50 l45 1 -49 13 c-27 8 -63 24 -79
35 -28 21 -28 21 -18 1z"/>
<path d="M2357 5919 c-158 -83 -175 -375 -46 -819 34 -115 100 -304 119 -340
l13 -24 12 25 c16 31 137 423 171 554 19 73 27 136 31 235 6 157 -8 234 -57
305 -54 79 -161 107 -243 64z"/>
<path d="M2388 3078 c-153 -206 -288 -579 -343 -943 -81 -544 -8 -1148 201
-1665 64 -156 179 -380 196 -380 4 0 31 44 61 98 383 687 474 1649 227 2402
-58 177 -160 387 -237 488 -23 31 -28 33 -38 19 -10 -15 -13 -15 -27 -1 -14
14 -18 13 -40 -18z"/>
</g>
</svg>
